<?xml version="1.0" standalone="no"?><!-- Generator: Gravit.io --><svg xmlns="http://www.w3.org/2000/svg" xmlns:xlink="http://www.w3.org/1999/xlink" style="isolation:isolate" viewBox="-108.34 524.147 384.34 422.007" width="384.34" height="422.007"><defs><clipPath id="_clipPath_yzphllnzyn4H5NBllVpBfincDtVugHSN"><rect x="-108.34" y="524.147" width="384.34" height="422.007"/></clipPath></defs><g clip-path="url(#_clipPath_yzphllnzyn4H5NBllVpBfincDtVugHSN)"><line x1="257.274" y1="738.065" x2="256.579" y2="738.065"/><g><path d=" M -38.899 687.829 L 246.182 687.829 L 246.182 524.147 L -38.899 524.147 L -38.899 687.829 Z " fill="rgb(44,104,36)"/><path d=" M -35.539 601.949 L -35.539 683.132 L 241.572 683.132 L 241.572 528.138 L -35.539 528.138 L -35.539 601.949 Z " fill="rgb(253,253,252)"/><path d=" M 40.113 654.617 L 38.513 654.617 L 38.513 556.218 L 40.113 556.218 L 40.113 654.617 Z " fill="rgb(173,173,173)"/><path d=" M 59.502 654.617 L 57.902 654.617 L 57.902 556.218 L 59.502 556.218 L 59.502 654.617 Z " fill="rgb(173,173,173)"/><path d=" M 78.881 654.617 L 77.309 654.617 L 77.309 556.218 L 78.881 556.218 L 78.881 654.617 Z " fill="rgb(173,173,173)"/><path d=" M 98.269 654.617 L 96.688 654.617 L 96.688 556.218 L 98.269 556.218 L 98.269 654.617 Z " fill="rgb(173,173,173)"/><path d=" M 117.658 654.617 L 116.077 654.617 L 116.077 556.218 L 117.658 556.218 L 117.658 654.617 Z " fill="rgb(173,173,173)"/><path d=" M 137.037 654.617 L 135.456 654.617 L 135.456 556.218 L 137.037 556.218 L 137.037 654.617 Z " fill="rgb(173,173,173)"/><path d=" M 156.416 654.617 L 154.844 654.617 L 154.844 556.218 L 156.416 556.218 L 156.416 654.617 Z " fill="rgb(173,173,173)"/><path d=" M 175.804 654.617 L 174.233 654.617 L 174.233 556.218 L 175.804 556.218 L 175.804 654.617 Z " fill="rgb(173,173,173)"/><path d=" M 190.62 643.337 L 19.257 643.337 L 19.257 642.44 L 190.62 642.44 L 190.62 643.337 Z " fill="rgb(173,173,173)"/><path d=" M 190.62 632.21 L 19.257 632.21 L 19.257 631.297 L 190.62 631.297 L 190.62 632.21 Z " fill="rgb(173,173,173)"/><path d=" M 190.62 621.078 L 19.257 621.078 L 19.257 620.17 L 190.62 620.17 L 190.62 621.078 Z " fill="rgb(173,173,173)"/><path d=" M 190.62 609.945 L 19.257 609.945 L 19.257 609.038 L 190.62 609.038 L 190.62 609.945 Z " fill="rgb(173,173,173)"/><path d=" M 190.62 598.813 L 19.257 598.813 L 19.257 597.905 L 190.62 597.905 L 190.62 598.813 Z " fill="rgb(173,173,173)"/><path d=" M 191.311 587.68 L 19.929 587.68 L 19.929 586.778 L 191.311 586.778 L 191.311 587.68 Z " fill="rgb(173,173,173)"/><path d=" M 191.311 576.559 L 19.929 576.559 L 19.929 575.64 L 191.311 575.64 L 191.311 576.559 Z " fill="rgb(173,173,173)"/><path d=" M 191.311 565.415 L 19.929 565.415 L 19.929 564.518 L 191.311 564.518 L 191.311 565.415 Z " fill="rgb(173,173,173)"/><path d=" M 20.725 659.215 L 19.134 659.215 L 19.134 556.718 L 20.725 556.718 L 20.725 659.215 Z " fill="rgb(125,125,125)"/><path d=" M 17.724 557.62 L 20.043 552.69 L 22.334 557.62 L 17.724 557.62 Z " fill="rgb(125,125,125)"/><path d=" M 189.389 654.47 L 10.879 654.47 L 10.879 653.562 L 189.389 653.562 L 189.389 654.47 Z " fill="rgb(125,125,125)"/><path d=" M 187.818 652.747 L 196.414 654.062 L 187.818 655.394 L 187.818 652.747 Z " fill="rgb(125,125,125)"/><path d=" M 20.725 659.074 L 19.134 659.074 L 19.134 654.024 L 20.725 654.024 L 20.725 659.074 Z " fill="rgb(125,125,125)"/><path d=" M 40.113 657.389 L 38.513 657.389 L 38.513 654.024 L 40.113 654.024 L 40.113 657.389 Z " fill="rgb(125,125,125)"/><path d=" M 59.502 657.389 L 57.902 657.389 L 57.902 654.024 L 59.502 654.024 L 59.502 657.389 Z " fill="rgb(125,125,125)"/><path d=" M 78.881 657.389 L 77.309 657.389 L 77.309 654.024 L 78.881 654.024 L 78.881 657.389 Z " fill="rgb(125,125,125)"/><path d=" M 98.269 657.389 L 96.679 657.389 L 96.679 654.024 L 98.269 654.024 L 98.269 657.389 Z " fill="rgb(125,125,125)"/><path d=" M 117.648 657.389 L 116.058 657.389 L 116.058 654.024 L 117.648 654.024 L 117.648 657.389 Z " fill="rgb(125,125,125)"/><path d=" M 137.027 657.389 L 135.456 657.389 L 135.456 654.024 L 137.027 654.024 L 137.027 657.389 Z " fill="rgb(125,125,125)"/><path d=" M 156.416 657.389 L 154.835 657.389 L 154.835 654.024 L 156.416 654.024 L 156.416 657.389 Z " fill="rgb(125,125,125)"/><path d=" M 175.804 657.389 L 174.223 657.389 L 174.223 654.024 L 175.804 654.024 L 175.804 657.389 Z " fill="rgb(125,125,125)"/><path d=" M 19.929 643.337 L 14.069 643.337 L 14.069 642.44 L 19.929 642.44 L 19.929 643.337 Z " fill="rgb(125,125,125)"/><path d=" M 19.929 632.21 L 14.069 632.21 L 14.069 631.297 L 19.929 631.297 L 19.929 632.21 Z " fill="rgb(125,125,125)"/><path d=" M 19.929 621.083 L 14.069 621.083 L 14.069 620.17 L 19.929 620.17 L 19.929 621.083 Z " fill="rgb(125,125,125)"/><path d=" M 19.929 609.956 L 14.069 609.956 L 14.069 609.043 L 19.929 609.043 L 19.929 609.956 Z " fill="rgb(125,125,125)"/><path d=" M 19.929 598.818 L 14.069 598.818 L 14.069 597.91 L 19.929 597.91 L 19.929 598.818 Z " fill="rgb(125,125,125)"/><path d=" M 19.929 587.686 L 14.069 587.686 L 14.069 586.778 L 19.929 586.778 L 19.929 587.686 Z " fill="rgb(125,125,125)"/><path d=" M 19.929 576.559 L 14.069 576.559 L 14.069 575.651 L 19.929 575.651 L 19.929 576.559 Z " fill="rgb(125,125,125)"/><path d=" M 19.929 565.432 L 14.069 565.432 L 14.069 564.518 L 19.929 564.518 L 19.929 565.432 Z " fill="rgb(125,125,125)"/><path d=" M 20.119 654.926 L 19.759 653.116 C 20.062 653.089 49.675 651.002 83.264 639.103 C 114.24 628.128 155.034 606.331 173.485 564.747 L 176.571 565.203 C 157.817 607.401 116.313 629.552 84.807 640.696 C 50.631 652.779 20.412 654.899 20.119 654.926 Z " fill="rgb(30,32,32)"/><path d=" M 19.977 654.926 L 19.901 653.111 C 21.028 653.089 132.9 651.295 173.627 609.663 L 176.391 610.56 C 134.755 653.089 21.122 654.916 19.977 654.926 Z " fill="rgb(180,209,215)"/><path d=" M 20.346 654.894 L 19.522 653.138 C 20.355 653.002 104.205 639.369 134.717 575.678 L 137.775 576.156 C 106.752 640.902 21.198 654.758 20.346 654.894 Z " fill="rgb(0,74,110)"/><path d=" M 20.668 654.823 L 19.191 653.214 C 19.797 653.035 79.382 634.352 95.921 587.055 L 99.017 587.419 C 82.185 635.58 21.283 654.633 20.668 654.823 Z " fill="rgb(125,125,125)"/><path d=" M 20.952 654.714 L 18.916 653.317 C 19.257 653.149 54.56 635.151 57.125 572.232 L 60.297 572.275 C 57.693 636.162 22.457 653.981 20.952 654.714 Z " fill="rgb(0,59,94)"/><path d=" M 57.873 564.856 L 58.309 563.529 L 58.422 563.529 L 58.858 564.845 L 59.947 566.72 L 56.813 566.72 L 57.873 564.856 Z  M 61.726 569.894 L 64.737 569.894 L 59.483 561.442 L 57.362 561.442 L 52.117 569.894 L 54.967 569.894 L 56.084 568.035 L 60.571 568.035 L 61.726 569.894 Z " fill="rgb(125,125,125)"/><path d=" M 98.231 581.978 L 97.682 581.967 L 97.19 581.94 L 96.859 581.902 L 96.859 579.619 L 98.383 579.619 L 99.462 579.657 L 100.447 579.809 L 101.147 580.163 L 101.422 580.782 L 101.194 581.32 L 100.589 581.685 L 99.727 581.902 L 98.724 581.978 L 98.231 581.978 Z  M 96.859 578.38 L 96.859 576.156 L 97.55 576.124 L 98.572 576.113 L 99.471 576.156 L 100.267 576.325 L 100.816 576.635 L 101.034 577.157 L 100.456 577.907 L 99.083 578.325 L 98.449 578.369 L 97.777 578.38 L 96.859 578.38 Z  M 103.467 575.776 L 102.236 575.145 L 100.513 574.825 L 98.525 574.743 L 97.313 574.743 L 96.111 574.776 L 95.022 574.841 L 94.094 574.912 L 94.094 583.174 L 95.306 583.283 L 96.603 583.337 L 97.796 583.359 L 98.686 583.359 L 100.797 583.218 L 102.633 582.766 L 103.902 582 L 104.375 580.88 L 104.148 580.027 L 103.495 579.423 L 102.501 579.027 L 101.318 578.815 L 101.318 578.738 L 102.539 578.445 L 103.343 577.994 L 103.788 577.428 L 103.921 576.809 L 103.467 575.776 Z " fill="rgb(125,125,125)"/><path d=" M 140.994 570.579 L 139.867 570.851 L 138.286 570.954 L 136.516 570.753 L 135.228 570.161 L 134.481 569.248 L 134.244 568.068 C 134.244 567.073 134.575 566.339 135.285 565.872 C 135.995 565.399 136.923 565.165 138.069 565.165 L 139.659 565.231 L 140.805 565.415 L 141.373 564.024 L 139.943 563.796 L 137.822 563.709 L 135.494 563.921 L 133.373 564.649 C 132.729 564.991 132.218 565.443 131.83 565.997 C 131.413 566.551 131.233 567.242 131.233 568.057 C 131.233 568.862 131.404 569.53 131.764 570.068 C 132.123 570.634 132.587 571.085 133.184 571.438 L 135.266 572.183 C 136.062 572.335 136.876 572.417 137.766 572.417 L 139.886 572.297 L 141.581 571.906 L 140.994 570.579 Z " fill="rgb(125,125,125)"/><path d=" M 179.042 555.424 L 180.273 556.066 L 180.888 556.957 L 181.049 557.952 L 180.869 559.039 L 180.216 559.99 L 178.938 560.632 L 176.921 560.887 L 176.609 560.877 L 176.173 560.86 L 175.738 560.849 L 175.463 560.838 L 175.463 555.218 L 176.154 555.18 L 177.101 555.169 L 179.042 555.424 Z  M 172.614 562.219 L 173.419 562.268 L 174.555 562.301 L 175.7 562.328 L 176.59 562.339 C 177.991 562.339 179.165 562.214 180.121 561.969 C 181.077 561.719 181.844 561.393 182.441 560.985 C 183.028 560.583 183.435 560.115 183.671 559.588 C 183.927 559.061 184.059 558.512 184.059 557.952 C 184.059 557.327 183.927 556.751 183.662 556.229 C 183.387 555.723 182.98 555.272 182.403 554.886 C 181.835 554.517 181.096 554.223 180.169 554.017 C 179.269 553.815 178.162 553.712 176.865 553.712 L 175.87 553.712 L 174.725 553.739 L 173.598 553.777 L 172.614 553.826 L 172.614 562.219 Z " fill="rgb(125,125,125)"/><path d=" M 172.614 606.912 L 181.371 606.912 L 181.371 605.455 L 175.463 605.455 L 175.463 603.401 L 180.727 603.401 L 180.727 601.949 L 175.463 601.949 L 175.463 599.992 L 181.257 599.992 L 181.257 598.541 L 172.614 598.541 L 172.614 606.912 Z " fill="rgb(125,125,125)"/></g><g><path d=" M -74.365 556.665 C -73.382 557.648 -67.862 559.398 -66.116 564.927 C -65.137 567.959 -65.361 567.669 -65.813 568.751 C -66.576 570.547 -64.905 572.459 -63.951 573.492 C -62.499 575.101 -60.939 576.03 -62.976 577.225 C -65.286 578.573 -64.237 579.311 -63.494 579.933 C -62.918 580.385 -63.847 581.435 -64.137 581.754 C -64.137 581.754 -62.951 582.766 -63.681 583.496 C -64.39 584.243 -65.211 584.218 -65.24 584.881 C -65.261 585.562 -64.415 588.162 -65.601 589.141 C -66.8 590.145 -70.093 589.605 -71.79 589.593 C -73.237 589.605 -75.195 589.589 -76.808 591.144 C -81.856 596.146 -75.825 607.083 -75.825 607.083 C -75.825 607.083 -91.947 611.252 -98.446 602.94 C -99.355 601.795 -95.485 592.131 -95.518 589.709 C -95.58 586.644 -98.484 572.36 -92.055 571.684 L -78.505 565.682 L -74.365 556.665 Z " fill="rgb(253,177,113)"/><path d=" M -102.245 565.188 C -100.168 557.976 -97.144 550.697 -88.824 550.187 C -80.516 549.672 -71.628 552.418 -70.79 548.677 C -70.79 548.677 -66.617 556.313 -69.102 560.149 C -69.981 558.718 -79.662 572.493 -81.18 574.546 C -82.714 576.586 -81.698 570.555 -84.755 570.974 C -87.795 571.389 -89.388 577.656 -88.193 580.418 C -87.285 582.53 -91.615 586.445 -91.615 586.445 L -95.518 589.709 L -100.786 578.577 C -100.786 578.577 -104.344 572.434 -102.245 565.188 Z " fill="rgb(88,45,17)"/><path d=" M -99.413 821.416 C -99.413 821.416 -100.603 828.973 -99.413 838.101 L -59.679 838.101 C -59.679 838.101 -57.692 830.557 -62.851 829.765 C -68.023 828.973 -78.911 828.973 -79.629 821.416 L -99.413 821.416 Z " fill="rgb(30,32,32)"/><path d=" M -105.912 825.02 C -105.912 825.02 -107.136 832.797 -105.912 842.199 L -65.012 842.199 C -65.012 842.199 -62.951 834.423 -68.277 833.606 C -73.594 832.797 -84.796 832.797 -85.543 825.02 L -105.912 825.02 Z " fill="rgb(30,32,32)"/><path d=" M -59.061 692.242 C -59.061 692.242 -57.696 712.304 -63.333 712.449 C -68.973 712.603 -67.235 690.766 -67.235 690.766 L -59.061 692.242 Z " fill="rgb(253,177,113)"/><path d=" M -79.396 604.964 C -79.396 604.964 -60.193 630.775 -59.127 677.373 L -59.061 692.242 L -72.773 689.766 L -79.396 604.964 Z " fill="rgb(81,195,65)"/><path d=" M -98.612 706.095 C -98.612 706.095 -100.595 764.195 -100.989 772.146 C -101.404 780.089 -100.989 827.948 -100.989 827.948 L -76.754 827.948 C -76.754 827.948 -72.383 768.173 -71.196 762.212 C -70.006 756.244 -67.223 708.891 -67.223 699.351 C -67.223 689.812 -98.612 706.095 -98.612 706.095 Z " fill="rgb(223,79,77)"/><path d=" M -105.082 707.265 C -105.082 707.265 -107.127 766.12 -107.534 774.295 C -107.953 782.482 -107.534 831.619 -107.534 831.619 L -82.598 831.619 C -82.598 831.619 -78.081 770.213 -76.858 764.075 C -75.634 757.945 -72.773 710.131 -72.773 700.314 C -72.773 690.5 -105.082 707.265 -105.082 707.265 Z " fill="rgb(241,100,97)"/><path d=" M -96.227 592.521 C -96.227 592.521 -106.646 600.999 -107.745 627.461 C -108.824 653.835 -108.106 710.948 -108.106 710.948 L -62.951 710.948 C -62.951 710.948 -62.951 661.819 -62.951 650.77 C -62.951 639.734 -78.127 600.767 -78.127 600.767 L -96.227 592.521 Z " fill="rgb(81,195,65)"/><path d=" M -37.344 642.732 C -37.344 642.732 -27.891 639.236 -24.113 638.195 C -20.338 637.141 -11.645 641.675 -11.268 644.47 C -10.886 647.261 -22.607 651.102 -24.299 650.758 C -26.004 650.41 -41.105 653.159 -41.105 653.159 L -37.344 642.732 Z " fill="rgb(253,177,113)"/><path d=" M -62.951 652.628 L -90.707 638.041 C -90.707 638.041 -75.406 664.287 -62.951 667.348 C -62.951 660.92 -62.951 655.706 -62.951 652.628 Z " fill="rgb(70,151,59)"/><path d=" M -90.707 638.041 C -90.707 638.041 -74.407 657.722 -69.089 658.953 C -63.772 660.185 -34.876 654.951 -34.876 654.951 L -35.962 640.961 L -64.759 642.193 C -64.759 642.193 -88.322 604.964 -90.358 604.964 C -92.407 604.964 -90.707 638.041 -90.707 638.041 Z " fill="rgb(81,195,65)"/><path d=" M -19.774 642.193 C -20.293 642.193 -20.782 641.845 -20.94 641.314 C -21.135 640.659 -20.761 639.982 -20.11 639.788 L 14.477 629.526 C 15.124 629.315 15.808 629.7 16.003 630.356 C 16.19 630.999 15.816 631.679 15.178 631.874 L -19.414 642.139 L -19.774 642.193 Z " fill="rgb(30,32,32)"/><path d=" M -85.535 597.25 L -78.127 600.767 C -78.127 600.767 -68.517 625.474 -64.602 641.119 L -85.535 597.25 Z " fill="rgb(81,195,65)"/></g><g><path d=" M 53.232 916.303 L 156.052 916.303 L 156.052 906.594 L 53.232 906.594 L 53.232 916.303 Z " fill="rgb(135,81,46)"/><path d=" M -5.869 900.332 C -5.869 900.332 -12.791 909.072 -16.069 913.081 C -19.345 917.084 -14.609 926.194 -5.869 921.459 C 2.874 916.722 7.225 912.241 9.052 911.564 C 10.886 910.898 12.344 906.889 11.614 895.961 L -5.869 900.332 Z " fill="rgb(30,32,32)"/><path d=" M -59.662 798.107 C -59.662 798.107 -56.336 789.9 -55.639 786.22 C -54.94 782.553 -54.595 782.553 -55.639 778.357 C -56.689 774.166 -57.733 771.016 -56.336 769.618 C -54.94 768.222 -54.595 765.945 -52.848 765.776 C -51.096 765.611 -51.447 761.583 -49.176 761.228 C -46.904 760.887 -45.85 757.216 -43.059 757.562 C -40.259 757.914 -40.085 760.887 -40.085 768.752 C -40.085 776.614 -41.313 781.503 -42.882 783.772 C -44.456 786.054 -47.775 796.7 -47.775 796.7 L -59.662 798.107 Z " fill="rgb(253,177,113)"/><path d=" M -45.929 875.403 L -68.717 836.401 C -68.717 836.401 -64.58 800.484 -63.526 795.245 L -47.775 796.7 L -49.262 830.118 C -49.262 830.118 -45.82 842.407 -28.015 849.923 L -45.929 875.403 Z " fill="rgb(211,85,0)"/><path d=" M -44.374 767.444 L -44.44 767.444 C -45.23 767.412 -45.84 766.744 -45.81 765.945 L -44.674 739.615 C -44.639 738.828 -43.955 738.252 -43.182 738.245 C -42.391 738.277 -41.781 738.95 -41.812 739.737 L -42.948 766.074 C -42.983 766.847 -43.615 767.444 -44.374 767.444 Z " fill="rgb(63,178,172)"/><path d=" M -46.904 775.041 C -45.677 773.118 -45.86 764.029 -43.758 764.029 C -41.658 764.029 -42.183 771.198 -42.006 772.591 C -41.837 773.991 -43.758 779.762 -43.758 779.762 L -46.904 775.041 Z " fill="rgb(253,177,113)"/><path d=" M -55.522 911.264 C -55.522 911.264 -52.582 875.486 -53.219 863.349 C -53.86 851.208 -41.47 848.869 -29.552 849.292 L -29.552 847.482 L -13.357 847.482 L -13.357 911.264 L -55.522 911.264 Z " fill="rgb(211,85,0)"/><path d=" M -13.357 841.216 L -26.997 841.216 L -26.997 847.482 L -13.357 847.482 L -13.357 841.216 Z " fill="rgb(180,209,215)"/><path d=" M 28.807 911.264 C 28.807 911.264 25.674 875.486 26.357 863.349 C 27.034 851.208 13.838 848.869 1.157 849.292 L 1.157 847.482 L -16.061 847.482 L -16.061 911.264 L 28.807 911.264 Z " fill="rgb(211,85,0)"/><path d=" M -13.357 841.216 L 0.266 841.216 L 0.266 847.482 L -13.357 847.482 L -13.357 841.216 Z " fill="rgb(180,209,215)"/><path d=" M -13.357 789.405 C -26.605 789.405 -32.986 800.148 -32.986 810.423 C -32.986 820.706 -28.569 845.921 -13.357 845.458 L -13.357 789.405 Z " fill="rgb(55,18,11)"/><path d=" M -16.061 822.862 L -16.061 789.405 C -1 789.405 6.255 800.148 6.255 810.423 C 6.255 820.706 1.238 845.921 -16.061 845.458 L -16.061 822.862 Z " fill="rgb(55,18,11)"/><path d=" M 105.889 911.267 C 105.889 911.267 106.526 875.491 105.889 863.354 C 105.247 851.213 119.944 848.873 131.862 849.299 L 131.862 847.485 L 148.054 847.485 L 148.054 911.267 L 105.889 911.267 Z " fill="rgb(254,152,56)"/><path d=" M 148.054 841.221 L 134.42 841.221 L 134.42 847.485 L 148.054 847.485 L 148.054 841.221 Z " fill="rgb(180,209,215)"/><path d=" M 190.215 911.267 C 190.215 911.267 189.544 875.491 190.215 863.354 C 190.883 851.213 175.48 848.873 162.995 849.299 L 162.995 847.485 L 146.043 847.485 L 146.043 911.267 L 190.215 911.267 Z " fill="rgb(254,152,56)"/><path d=" M 146.043 841.221 L 161.675 841.221 L 161.675 847.485 L 146.043 847.485 L 146.043 841.221 Z " fill="rgb(180,209,215)"/><path d=" M 148.054 794.519 C 134.807 794.519 128.43 805.26 128.43 815.538 C 128.43 825.821 132.84 845.928 148.054 845.465 L 148.054 794.519 Z " fill="rgb(64,41,26)"/><path d=" M 146.043 794.519 C 160.637 794.519 167.665 805.26 167.665 815.538 C 167.665 825.821 162.803 845.928 146.043 845.465 L 146.043 794.519 Z " fill="rgb(64,41,26)"/><path d=" M 133.421 790.39 C 133.421 790.39 132.562 793.204 150.446 793.204 L 150.467 793.216 C 150.817 793.216 151.236 793.221 151.674 793.241 C 168.766 794.146 167.599 808.026 167.599 808.026 L 167.569 808.003 C 167.707 812.897 166.915 815.319 166.139 820.169 L 165.782 817.804 C 165.782 817.804 165.521 817.892 164.752 815.027 L 164.605 814.571 C 164.37 813.777 164.096 812.973 163.764 812.13 C 159.124 801.129 148.114 804.719 148.114 804.719 C 148.114 804.719 137.103 801.108 132.458 812.164 C 132.122 812.959 131.862 813.756 131.634 814.548 L 131.47 815.048 C 130.692 817.892 130.574 817.804 130.574 817.804 L 130.234 820.169 C 129.734 817.107 129.149 816.505 128.868 813.459 L 128.859 813.403 C 126.913 797.237 133.421 790.39 133.421 790.39 Z " fill="rgb(64,41,26)"/><path d=" M 81.134 850.336 C 81.134 845.294 78.792 841.221 75.894 841.221 L 58.868 841.221 C 55.97 841.221 53.618 845.294 53.618 850.336 C 53.618 855.367 55.97 859.448 58.868 859.448 L 75.894 859.448 C 78.792 859.448 81.134 855.367 81.134 850.336 Z " fill="rgb(0,59,94)"/><path d=" M 30.296 911.626 C 30.296 911.626 33.205 878.627 34.788 867.598 C 37.005 852.162 57.229 851.151 57.229 851.151 L 67.383 851.151 L 67.383 911.626 L 30.296 911.626 Z " fill="rgb(63,178,172)"/><path d=" M 104.466 911.626 C 104.466 911.626 101.401 878.627 99.731 867.598 C 97.401 852.162 76.136 851.151 76.136 851.151 L 65.473 851.151 L 65.473 911.626 L 104.466 911.626 Z " fill="rgb(63,178,172)"/><path d=" M 24.949 916.292 C 24.756 914.41 26.274 912.872 28.321 912.872 L 43.946 912.872 C 45.988 912.872 47.668 914.415 47.668 916.303 L 47.668 942.72 C 47.668 944.604 45.988 946.154 43.946 946.154 L 31.697 946.154 C 29.651 946.154 27.822 944.611 27.633 942.732 L 24.949 916.292 Z " fill="rgb(91,54,31)"/><path d=" M 20.096 913.397 C 20.096 911.677 21.771 910.279 23.819 910.279 L 34.952 910.279 C 36.994 910.279 38.664 911.677 38.664 913.397 C 38.664 915.11 36.994 916.513 34.952 916.513 L 23.819 916.513 C 21.771 916.513 20.096 915.11 20.096 913.397 Z " fill="rgb(64,41,26)"/><path d=" M 109.807 916.292 C 109.996 914.41 108.478 912.872 106.441 912.872 L 90.811 912.872 C 88.763 912.872 87.088 914.415 87.088 916.303 L 87.088 942.72 C 87.088 944.604 88.763 946.154 90.811 946.154 L 103.059 946.154 C 105.101 946.154 106.939 944.611 107.128 942.732 L 109.807 916.292 Z " fill="rgb(91,54,31)"/><path d=" M 114.656 913.397 C 114.656 911.677 112.98 910.279 110.943 910.279 L 99.815 910.279 C 97.768 910.279 96.093 911.677 96.093 913.397 C 96.093 915.11 97.768 916.513 99.815 916.513 L 110.943 916.513 C 112.98 916.513 114.656 915.11 114.656 913.397 Z " fill="rgb(64,41,26)"/><path d=" M 100.095 935.848 C 100.095 941.52 95.074 946.154 88.941 946.154 L 45.811 946.154 C 39.683 946.154 34.661 941.52 34.661 935.848 L 34.661 871.221 C 34.661 865.549 39.683 860.915 45.811 860.915 L 88.941 860.915 C 95.074 860.915 100.095 865.549 100.095 871.221 L 100.095 935.848 Z " fill="rgb(135,81,46)"/><path d=" M 105.618 916.292 C 105.43 914.41 106.948 912.872 108.99 912.872 L 124.614 912.872 C 126.662 912.872 128.338 914.415 128.338 916.303 L 128.338 942.72 C 128.338 944.604 126.662 946.154 124.614 946.154 L 112.367 946.154 C 110.32 946.154 108.491 944.611 108.302 942.732 L 105.618 916.292 Z " fill="rgb(91,54,31)"/><path d=" M 100.765 913.397 C 100.765 911.677 102.446 910.279 104.488 910.279 L 115.621 910.279 C 117.669 910.279 119.334 911.677 119.334 913.397 C 119.334 915.11 117.669 916.513 115.621 916.513 L 104.488 916.513 C 102.446 916.513 100.765 915.11 100.765 913.397 Z " fill="rgb(64,41,26)"/><path d=" M 190.476 916.292 C 190.665 914.41 189.147 912.872 187.111 912.872 L 171.481 912.872 C 169.432 912.872 167.758 914.415 167.758 916.303 L 167.758 942.72 C 167.758 944.604 169.432 946.154 171.481 946.154 L 183.728 946.154 C 185.776 946.154 187.609 944.611 187.802 942.732 L 190.476 916.292 Z " fill="rgb(91,54,31)"/><path d=" M 195.326 913.397 C 195.326 911.677 193.649 910.279 191.614 910.279 L 180.484 910.279 C 178.436 910.279 176.762 911.677 176.762 913.397 C 176.762 915.11 178.436 916.513 180.484 916.513 L 191.614 916.513 C 193.649 916.513 195.326 915.11 195.326 913.397 Z " fill="rgb(64,41,26)"/><path d=" M 180.765 935.848 C 180.765 941.52 175.742 946.154 169.609 946.154 L 126.48 946.154 C 120.352 946.154 115.332 941.52 115.332 935.848 L 115.332 871.221 C 115.332 865.549 120.352 860.915 126.48 860.915 L 169.609 860.915 C 175.742 860.915 180.765 865.549 180.765 871.221 L 180.765 935.848 Z " fill="rgb(135,81,46)"/><path d=" M 242.479 852.466 C 242.479 847.602 240.134 843.664 237.242 843.664 L 220.207 843.664 C 217.314 843.664 214.956 847.602 214.956 852.466 C 214.956 857.323 217.314 861.261 220.207 861.261 L 237.242 861.261 C 240.134 861.261 242.479 857.323 242.479 852.466 Z " fill="rgb(180,209,215)"/><path d=" M 191.641 911.626 C 191.641 911.626 194.543 879.779 196.132 869.13 C 198.347 854.228 218.574 853.249 218.574 853.249 L 228.728 853.249 L 228.728 911.626 L 191.641 911.626 Z " fill="rgb(0,59,94)"/><path d=" M 265.81 911.626 C 265.81 911.626 262.609 879.779 260.871 869.13 C 258.441 854.228 236.256 853.249 236.256 853.249 L 225.133 853.249 L 225.133 911.626 L 265.81 911.626 Z " fill="rgb(0,59,94)"/><path d=" M -55.531 916.292 C -55.724 914.41 -54.207 912.872 -52.16 912.872 L -36.531 912.872 C -34.482 912.872 -32.812 914.415 -32.812 916.303 L -32.812 942.72 C -32.812 944.604 -34.482 946.154 -36.531 946.154 L -48.783 946.154 C -50.832 946.154 -52.66 944.611 -52.847 942.732 L -55.531 916.292 Z " fill="rgb(91,54,31)"/><path d=" M -60.385 913.397 C -60.385 911.677 -58.709 910.279 -56.662 910.279 L -45.53 910.279 C -43.487 910.279 -41.817 911.677 -41.817 913.397 C -41.817 915.11 -43.487 916.513 -45.53 916.513 L -56.662 916.513 C -58.709 916.513 -60.385 915.11 -60.385 913.397 Z " fill="rgb(64,41,26)"/><path d=" M 29.327 916.292 C 29.525 914.41 27.996 912.872 25.959 912.872 L 10.33 912.872 C 8.281 912.872 6.617 914.415 6.617 916.303 L 6.617 942.72 C 6.617 944.604 8.281 946.154 10.33 946.154 L 22.588 946.154 C 24.621 946.154 26.458 944.611 26.648 942.732 L 29.327 916.292 Z " fill="rgb(91,54,31)"/><path d=" M 34.174 913.397 C 34.174 911.677 32.499 910.279 30.461 910.279 L 19.335 910.279 C 17.286 910.279 15.61 911.677 15.61 913.397 C 15.61 915.11 17.286 916.513 19.335 916.513 L 30.461 916.513 C 32.499 916.513 34.174 915.11 34.174 913.397 Z " fill="rgb(64,41,26)"/><path d=" M 19.609 935.848 C 19.609 941.52 14.602 946.154 8.461 946.154 L -34.662 946.154 C -40.799 946.154 -45.82 941.52 -45.82 935.848 L -45.82 871.221 C -45.82 865.549 -40.799 860.915 -34.662 860.915 L 8.461 860.915 C 14.602 860.915 19.609 865.549 19.609 871.221 L 19.609 935.848 Z " fill="rgb(135,81,46)"/><path d=" M 186.287 916.292 C 186.1 914.41 187.618 912.872 189.663 912.872 L 205.284 912.872 C 207.333 912.872 209.008 914.415 209.008 916.303 L 209.008 942.72 C 209.008 944.604 207.333 946.154 205.284 946.154 L 193.037 946.154 C 190.99 946.154 189.166 944.611 188.972 942.732 L 186.287 916.292 Z " fill="rgb(91,54,31)"/><path d=" M 181.439 913.397 C 181.439 911.677 183.116 910.279 185.161 910.279 L 196.291 910.279 C 198.338 910.279 200.003 911.677 200.003 913.397 C 200.003 915.11 198.338 916.513 196.291 916.513 L 185.161 916.513 C 183.116 916.513 181.439 915.11 181.439 913.397 Z " fill="rgb(64,41,26)"/><path d=" M 271.145 916.292 C 271.339 914.41 269.824 912.872 267.783 912.872 L 252.155 912.872 C 250.108 912.872 248.427 914.415 248.427 916.303 L 248.427 942.72 C 248.427 944.604 250.108 946.154 252.155 946.154 L 264.398 946.154 C 266.445 946.154 268.283 944.611 268.472 942.732 L 271.145 916.292 Z " fill="rgb(91,54,31)"/><path d=" M 276 913.397 C 276 911.677 274.326 910.279 272.285 910.279 L 261.153 910.279 C 259.11 910.279 257.431 911.677 257.431 913.397 C 257.431 915.11 259.11 916.513 261.153 916.513 L 272.285 916.513 C 274.326 916.513 276 915.11 276 913.397 Z " fill="rgb(64,41,26)"/><path d=" M 261.434 935.848 C 261.434 941.52 256.411 946.154 250.285 946.154 L 207.154 946.154 C 201.023 946.154 196.001 941.52 196.001 935.848 L 196.001 871.221 C 196.001 865.549 201.023 860.915 207.154 860.915 L 250.285 860.915 C 256.411 860.915 261.434 865.549 261.434 871.221 L 261.434 935.848 Z " fill="rgb(135,81,46)"/><path d=" M 89.13 832.101 C 88.116 832.101 87.205 832.564 86.589 833.278 C 85.769 832.755 84.792 832.449 83.741 832.449 C 81.038 832.449 78.812 834.452 78.399 837.059 C 76.015 837.14 74.091 839.111 74.091 841.545 L 74.101 841.582 L 74.091 841.582 C 71.661 841.582 69.696 843.579 69.696 846.041 C 69.696 848.5 71.661 850.49 74.091 850.49 C 75.559 850.49 76.826 849.778 77.624 848.682 C 78.231 848.912 78.883 849.048 79.561 849.048 C 82.544 849.048 84.949 846.609 84.949 843.588 L 84.938 843.213 C 87.017 842.738 88.62 841.059 89.023 838.945 L 89.13 838.954 C 91.009 838.954 92.527 837.421 92.527 835.525 C 92.527 833.639 91.009 832.101 89.13 832.101 Z " fill="rgb(30,32,32)"/><path d=" M 65.473 841.953 C 64.923 841.953 64.409 842.068 63.916 842.252 C 63.161 840.811 61.862 839.71 60.264 839.24 C 60.916 838.192 61.292 836.962 61.292 835.654 C 61.292 831.887 58.237 828.826 54.462 828.826 C 53.526 828.826 52.629 829.01 51.81 829.354 C 51.133 828.315 49.95 827.624 48.606 827.624 C 46.498 827.624 44.78 829.344 44.78 831.452 C 44.78 832.603 45.301 833.628 46.111 834.33 C 44.231 835.189 42.917 837.085 42.917 839.291 C 42.917 842.305 45.352 844.737 48.366 844.737 C 48.733 844.737 49.105 844.705 49.436 844.636 C 49.384 844.882 49.355 845.122 49.355 845.377 C 49.355 847.171 50.811 848.627 52.599 848.627 C 52.919 848.627 53.204 848.569 53.485 848.482 C 54.585 850.091 56.429 851.151 58.526 851.151 C 60.213 851.151 61.741 850.467 62.841 849.355 C 63.568 849.942 64.476 850.315 65.473 850.315 C 67.781 850.315 69.655 848.438 69.655 846.13 C 69.655 843.823 67.781 841.953 65.473 841.953 Z " fill="rgb(30,32,32)"/><path d=" M 84.19 827.018 C 84.19 827.018 86.537 816.994 83.812 811.428 C 80.868 805.417 76.454 801.988 68.362 801.988 C 60.264 801.988 55.853 805.417 52.909 811.428 C 50.175 816.994 52.517 827.018 52.517 827.018 C 48.845 826.284 49.533 830.314 50.684 832.129 C 51.641 833.644 51.661 833.798 52.227 835.454 C 53.068 837.844 54.951 836.2 54.951 836.2 C 56.062 839.265 56.852 839.984 61.242 844.046 C 65.076 847.577 66.421 847.54 68.362 847.54 C 70.286 847.54 71.606 847.577 75.476 844.046 C 79.887 840 80.646 839.265 81.756 836.2 C 81.756 836.2 83.66 837.844 84.479 835.454 C 85.06 833.798 85.071 833.644 86.029 832.129 C 87.173 830.314 87.872 826.284 84.19 827.018 Z " fill="rgb(30,32,32)"/><path d=" M 93.856 824.103 C 95.22 822.908 96.093 821.148 96.093 819.2 C 96.093 817.422 95.369 815.812 94.233 814.647 C 94.824 813.737 95.159 812.66 95.159 811.506 C 95.159 808.305 92.567 805.707 89.364 805.707 C 89.032 805.707 88.703 805.744 88.381 805.788 L 88.391 805.707 C 88.391 801.711 85.147 798.476 81.155 798.476 C 80.37 798.476 79.621 798.598 78.908 798.821 C 78.803 797.152 77.412 795.816 75.715 795.816 C 75.496 795.816 75.297 795.841 75.1 795.878 C 74.07 794.418 72.374 793.46 70.443 793.46 C 68.89 793.46 67.48 794.091 66.462 795.095 C 65.494 794.524 64.378 794.188 63.177 794.188 C 60.125 794.188 57.57 796.283 56.872 799.137 C 56.062 798.711 55.155 798.476 54.183 798.476 C 51.717 798.476 49.634 800.003 48.784 802.158 L 48.388 802.137 C 44.761 802.137 41.828 805.074 41.828 808.692 C 41.828 809.348 41.939 809.979 42.108 810.587 C 40.477 811.107 39.291 812.614 39.291 814.426 C 39.291 815.225 39.53 815.98 39.943 816.616 C 38.695 817.657 37.897 819.225 37.897 820.98 C 37.897 823.032 38.99 824.831 40.62 825.835 C 39.551 826.975 38.905 828.508 38.905 830.199 C 38.905 833.745 41.776 836.626 45.33 836.626 C 48.596 836.626 51.279 834.194 51.698 831.039 C 52.935 830.399 53.796 829.119 53.796 827.624 C 53.796 827.196 53.703 826.79 53.576 826.399 C 56.312 825.809 58.37 823.389 58.37 820.471 C 58.37 819.327 58.038 818.26 57.478 817.344 C 58.975 816.418 59.973 814.764 59.973 812.871 L 59.942 812.273 L 60.252 812.448 C 60.691 814.378 62.412 815.819 64.476 815.819 L 64.664 815.801 C 65.275 817.956 67.252 819.545 69.609 819.545 C 70.348 819.545 71.035 819.391 71.661 819.112 L 71.646 819.707 C 71.646 823.829 74.977 827.175 79.103 827.175 C 79.698 827.175 80.268 827.101 80.829 826.959 C 80.798 827.184 80.777 827.398 80.777 827.624 C 80.777 829.782 82.265 831.583 84.271 832.057 C 85.249 834.441 87.597 836.129 90.332 836.129 C 93.933 836.129 96.855 833.197 96.855 829.593 C 96.855 827.281 95.659 825.266 93.856 824.103 Z " fill="rgb(30,32,32)"/><path d=" M 248.839 824.791 C 249.09 818.993 247.856 810.937 239.952 807.149 C 237.057 805.751 234.315 805.233 231.894 805.168 C 231.945 804.486 231.906 803.752 231.692 802.923 C 230.301 797.879 224.481 793.541 219.27 794.74 C 214.06 795.956 211.463 802.405 212.803 807.282 C 213.153 808.533 213.696 809.482 214.413 810.189 C 208.798 814.509 208.759 822.24 209.399 827.092 C 210.806 844.332 223.654 850.326 228.993 850.435 C 234.584 850.315 248.498 843.749 248.874 824.791 L 248.839 824.791 Z " fill="rgb(30,32,32)"/></g></g></svg>